PathFileType	4	(X/Y/Z)	./resultDataOpenSim/trcMotMarkerGrf/sub06/qtm-01-03.trc
DataRate	CameraRate	NumFrames	NumMarkers	Units	OrigDataRate	OrigDataStartFrame	OrigNumFrames
250.000000	250.000000	10	24	m	250.000000	449	512
Frame#	Time	L.Toe.Tip			R.Toe.Tip			L.Ankle.Lat			R.Ankle.Lat			L.Ankle.Med			R.Ankle.Med			L.Heel			R.Heel			L.Knee.Lat			R.Knee.Lat			L.Knee.Med			R.Knee.Med			L.Thigh.Upper			R.Thigh.Upper			L.ASIS			R.ASIS			V.Sacral			L.Acromium			R.Acromium			C7			L.Elbow			R.Elbow			L.Wrist.Lat			R.Wrist.Lat
		X1	Y1	Z1	X2	Y2	Z2	X3	Y3	Z3	X4	Y4	Z4	X5	Y5	Z5	X6	Y6	Z6	X7	Y7	Z7	X8	Y8	Z8	X9	Y9	Z9	X10	Y10	Z10	X11	Y11	Z11	X12	Y12	Z12	X13	Y13	Z13	X14	Y14	Z14	X15	Y15	Z15	X16	Y16	Z16	X17	Y17	Z17	X18	Y18	Z18	X19	Y19	Z19	X20	Y20	Z20	X21	Y21	Z21	X22	Y22	Z22	X23	Y23	Z23	X24	Y24	Z24

449	1.792	1.6151086	0.033474848	-0.021745968	1.0552109	0.082858739	0.15453938	1.4907008	0.066627546	-0.046881869	1.0467407	0.22522286	0.1741604	1.4904869	0.07989752	0.039279488	1.0876241	0.21027617	0.095381799	1.4143361	0.039085671	-0.0056589985	1.0213414	0.26374338	0.10672229	1.5510427	0.4360591	-0.063994708	1.3865987	0.40021933	0.21275717	1.5211913	0.43255859	0.053327113	1.3862262	0.37750378	0.078143339	1.417449	0.81012083	-0.13630499	1.3521474	0.76177123	0.20062099	1.4752879	0.85155915	-0.078718046	1.4489951	0.82783163	0.16518313	1.271774	0.90766147	0.035462197	1.3544879	1.316122	-0.1510577	1.3603389	1.3100119	0.21357705	1.2761787	1.3485718	0.032015612	1.2776606	1.0100319	-0.18513918	1.3597847	0.98718354	0.27899406	1.3675017	0.78856748	-0.23662301	1.5683125	0.86019029	0.2640338
450	1.796	1.615098	0.033462595	-0.021764974	1.0718122	0.08398158	0.15514857	1.4906864	0.066573245	-0.046839434	1.0599343	0.22603992	0.17384042	1.4909023	0.080077113	0.039212649	1.1008067	0.21129893	0.095052939	1.4143075	0.039159423	-0.0056139175	1.0337255	0.26363845	0.10598039	1.552869	0.43580145	-0.063974134	1.3982813	0.40222488	0.21320861	1.5225105	0.43243405	0.053277261	1.3982007	0.37943012	0.078504375	1.4227029	0.81102377	-0.13667277	1.3569947	0.76367312	0.20072934	1.4806971	0.85252488	-0.079154721	1.4545844	0.82963692	0.16509842	1.2772653	0.90924437	0.034635461	1.3607005	1.3177672	-0.15108365	1.3652915	1.3115057	0.21363897	1.2817976	1.3500146	0.031773668	1.2858752	1.0109298	-0.18577525	1.3634836	0.98854346	0.27802937	1.3784623	0.7903663	-0.23635993	1.5699281	0.85851825	0.26436745
451	1.8	1.6150903	0.033451571	-0.021774959	1.0884332	0.084882059	0.15578934	1.4906753	0.066572036	-0.046916819	1.0731652	0.22645744	0.1735759	1.4911049	0.080179092	0.039181055	1.1141212	0.21204015	0.094741794	1.4142873	0.039244938	-0.0055950508	1.0461013	0.26325185	0.10549342	1.554632	0.43557664	-0.06388521	1.4099226	0.40437412	0.21356867	1.5238069	0.43236427	0.053289613	1.4101837	0.38142029	0.078790804	1.427909	0.81189131	-0.13704587	1.3627279	0.76545208	0.20043916	1.4860939	0.85349712	-0.079625319	1.4601524	0.83146192	0.16498536	1.2827419	0.91083386	0.033929979	1.3668496	1.3194443	-0.15107684	1.3702427	1.31302	0.21370905	1.2873955	1.3514638	0.031555587	1.2940861	1.0118734	-0.18641664	1.3669112	0.98997979	0.27714729	1.3894754	0.79226427	-0.23607082	1.571441	0.85694737	0.26473408
452	1.804	1.615079	0.033446951	-0.02177673	1.1049687	0.085528288	0.15649589	1.4906759	0.066619784	-0.047069166	1.0863668	0.22649517	0.17335994	1.4911754	0.080245361	0.039170141	1.1275648	0.2125259	0.094474308	1.4142698	0.039339586	-0.005608971	1.0584294	0.26260069	0.1052254	1.5563376	0.43537296	-0.063740606	1.4215119	0.4066525	0.2137897	1.525073	0.43234628	0.053346108	1.4223405	0.38345869	0.079025037	1.4331033	0.81272233	-0.13743398	1.3690882	0.76712808	0.19986277	1.4914876	0.85448139	-0.08012383	1.465687	0.83330297	0.16483682	1.2882401	0.91240482	0.033394612	1.3729476	1.3211588	-0.15104847	1.3751936	1.3145572	0.2137783	1.2930003	1.3529474	0.031351537	1.3022856	1.0128657	-0.18707347	1.3699848	0.99149953	0.27633457	1.4005377	0.79425594	-0.23574975	1.5728418	0.85547332	0.26513328
453	1.808	1.6150644	0.033450426	-0.02177	1.1214716	0.085942298	0.15724807	1.4906994	0.066695902	-0.047204018	1.0995609	0.22622569	0.17316055	1.4912089	0.080320174	0.039164441	1.1411428	0.21277073	0.094259566	1.4142472	0.039433955	-0.0056711721	1.0708222	0.26168893	0.10499877	1.5580004	0.43518749	-0.063546643	1.4331241	0.40905512	0.21392419	1.5262873	0.43237611	0.0534291	1.4346917	0.38554984	0.079214578	1.4382641	0.81351314	-0.13781467	1.375871	0.76874773	0.19923201	1.4968502	0.85549363	-0.080643557	1.471197	0.83515917	0.1646488	1.2937705	0.91395528	0.032973976	1.3790002	1.3229087	-0.15100685	1.3801367	1.3161153	0.21384074	1.2986253	1.3544754	0.031159021	1.3104799	1.0139011	-0.18774817	1.3728111	0.99306831	0.27554765	1.411649	0.79633399	-0.23539469	1.5741307	0.85409303	0.26556815
454	1.812	1.6150526	0.033458407	-0.021756515	1.138035	0.086169936	0.15801566	1.490742	0.066778916	-0.047274377	1.1128521	0.22574704	0.1729414	1.4912506	0.080421169	0.03915585	1.1548634	0.21277895	0.094106106	1.414213	0.039517564	-0.005794228	1.0833519	0.26050732	0.10473412	1.5596229	0.4350212	-0.063310643	1.4447588	0.41157519	0.2140309	1.5273919	0.43243973	0.053519787	1.4471089	0.38771334	0.079355018	1.443271	0.81426742	-0.13812744	1.3829203	0.77038306	0.19877288	1.5021456	0.85654425	-0.081182886	1.4767122	0.83702661	0.16442489	1.2993306	0.9154772	0.032586634	1.3850168	1.3246842	-0.15095637	1.3850709	1.3176844	0.21389325	1.3042647	1.3560366	0.03097354	1.31868	1.0149687	-0.18844035	1.3756274	0.99464525	0.27474697	1.4228083	0.79849114	-0.2350064	1.575324	0.85280471	0.266038
455	1.816	1.615049	0.03346499	-0.021740614	1.1547236	0.086254616	0.15878231	1.4907836	0.066855217	-0.047307838	1.1263242	0.22511673	0.17268415	1.4913061	0.080544463	0.03914281	1.1687369	0.21254387	0.094030823	1.4141755	0.039596789	-0.0059500073	1.0960134	0.25903623	0.10445472	1.5611869	0.43487604	-0.063046684	1.4562695	0.41419483	0.2140962	1.528314	0.43251476	0.053603093	1.4594268	0.38996973	0.079440423	1.4480461	0.81501102	-0.13834086	1.3901145	0.77209601	0.19860379	1.5073619	0.85763113	-0.081737314	1.4822738	0.83889764	0.16417364	1.3049097	0.91695432	0.032184155	1.3910076	1.3264711	-0.15089592	1.3900001	1.3192571	0.21393341	1.3099069	1.3576108	0.030788026	1.3268854	1.0160589	-0.18915255	1.3786468	0.99623178	0.2739153	1.4340006	0.80072358	-0.2345832	1.5764357	0.85160135	0.26653832
456	1.82	1.6150554	0.033467287	-0.021725556	1.171566	0.0862229	0.15954584	1.4908087	0.066921414	-0.047346141	1.1399986	0.22433699	0.17238737	1.4913581	0.080679597	0.039127147	1.1827945	0.21205172	0.094076148	1.4141578	0.039691928	-0.0060642737	1.1087832	0.2572502	0.10417749	1.5626752	0.43475366	-0.062770335	1.4675831	0.41689126	0.21410691	1.5290686	0.43258951	0.053686711	1.4715219	0.3923259	0.079467879	1.4526966	0.81577549	-0.13850605	1.3971819	0.77392157	0.19868649	1.5125243	0.85874723	-0.082299389	1.4879079	0.84076629	0.1638971	1.3104965	0.91838905	0.031754333	1.396977	1.3282576	-0.150823	1.3949302	1.3208282	0.21396194	1.3155417	1.3591686	0.030602407	1.3350868	1.017168	-0.18987347	1.3819193	0.99785878	0.27306407	1.4452011	0.8030326	-0.23411938	1.5774719	0.8504744	0.26706633
457	1.824	1.6150694	0.033466663	-0.021710878	1.1885587	0.086081911	0.16031238	1.4908219	0.066982714	-0.047389854	1.1538628	0.22338615	0.17206096	1.4913826	0.080817964	0.039112039	1.1970654	0.21131147	0.094268733	1.4141719	0.039810641	-0.0060825792	1.1216975	0.25513737	0.10382584	1.5640863	0.43465419	-0.062493984	1.4787532	0.41964833	0.21407797	1.5297618	0.43266888	0.05379556	1.4833707	0.39476857	0.079443609	1.457394	0.81656604	-0.13869386	1.4037605	0.77585371	0.19885941	1.5176729	0.85989112	-0.082865366	1.4935992	0.84263468	0.16358603	1.316081	0.91980002	0.031303625	1.4029298	1.3300391	-0.15073585	1.399868	1.3223884	0.21398426	1.3211628	1.3606798	0.030423969	1.3432767	1.0182944	-0.19058101	1.3853443	0.99953679	0.27222342	1.4563992	0.80542048	-0.23361157	1.5784381	0.84941998	0.26762029
458	1.828	1.6150856	0.033465127	-0.021694535	1.2056823	0.085830112	0.16108432	1.4908375	0.067047216	-0.047412101	1.1678643	0.22222303	0.17172838	1.4913716	0.080955215	0.039100814	1.2114737	0.21037376	0.094484973	1.4142047	0.039943186	-0.0060283546	1.1348661	0.25272195	0.10325431	1.5654247	0.43457541	-0.062224885	1.4898177	0.42245355	0.21400911	1.5305081	0.43276022	0.053945508	1.4950625	0.39728028	0.079387544	1.4621922	0.81736375	-0.13891388	1.4097311	0.77784492	0.19893319	1.5228236	0.86106749	-0.083432588	1.4993	0.844511	0.16323061	1.3216443	0.92119207	0.030840605	1.4088748	1.3318196	-0.15063108	1.4048225	1.3239245	0.21400561	1.3267702	1.3621362	0.030262333	1.3514525	1.0194333	-0.19127139	1.3887873	1.0012443	0.27142522	1.4676014	0.80788417	-0.23306649	1.5793386	0.84843766	0.26820069
